<?xml version="1.0" encoding="utf-8"?>
<svg xmlns="http://www.w3.org/2000/svg" style="margin: auto; background: none; display: block; shape-rendering: crispedges;" width="289" height="170" preserveAspectRatio="xMidYMid">
<style type="text/css">
  text {
    text-anchor: middle; font-size: 61px; opacity: 0;
  }
</style>
<g style="transform-origin: 144.5px 85px; transform: scale(1.45238);">
<g transform="translate(144.5,85)">
  <g transform="translate(-1,0)"><g class="path" style="transform: scale(0.91); transform-origin: -88.43px -0.20363px; animation: 1s linear -0.747692s infinite normal forwards running breath-bd4ee2e7-2857-4c8d-8dc0-242293ab8569;"><path d="M14.87 0L15.04-2.14L15.04-2.14Q14.03-0.88 12.50-0.21L12.50-0.21L12.50-0.21Q10.96 0.46 9.41 0.46L9.41 0.46L9.41 0.46Q1.51 0.46 1.51-7.22L1.51-7.22L1.51-21.04L3.86-21.04L3.86-6.93L3.86-6.93Q3.86-4.24 5.36-2.94L5.36-2.94L5.36-2.94Q6.85-1.64 9.41-1.64L9.41-1.64L9.41-1.64Q11.93-1.64 13.38-2.92L13.38-2.92L13.38-2.92Q14.83-4.20 14.83-6.93L14.83-6.93L14.83-21.04L17.18-21.04L17.18 0L14.87 0" fill="#eec00d" stroke="none" stroke-width="none" transform="translate(-97.7750244140625,10.086370943509612)" style="fill: rgb(238, 192, 13);"></path></g><g class="path" style="transform: scale(0.91); transform-origin: -69.925px -0.37363px; animation: 1s linear -0.685385s infinite normal forwards running breath-bd4ee2e7-2857-4c8d-8dc0-242293ab8569;"><path d="M22.51-5.33L22.51-5.33Q22.76-3.44 24.40-2.50L24.40-2.50L24.40-2.50Q26.04-1.55 28.06-1.55L28.06-1.55L28.06-1.55Q29.95-1.55 31.50-2.42L31.50-2.42L31.50-2.42Q33.05-3.28 33.05-5.21L33.05-5.21L33.05-5.21Q33.05-6.47 32.32-7.29L32.32-7.29L32.32-7.29Q31.58-8.11 30.49-8.61L30.49-8.61L30.49-8.61Q29.40-9.11 27.55-9.70L27.55-9.70L27.55-9.70Q25.49-10.37 24.19-10.96L24.19-10.96L24.19-10.96Q22.89-11.55 21.92-12.62L21.92-12.62L21.92-12.62Q20.96-13.69 20.79-15.33L20.79-15.33L20.75-15.83L20.75-15.83Q20.75-17.22 21.53-18.54L21.53-18.54L21.53-18.54Q22.30-19.87 23.92-20.71L23.92-20.71L23.92-20.71Q25.54-21.55 27.97-21.55L27.97-21.55L27.97-21.55Q29.32-21.55 30.35-21.27L30.35-21.27L30.35-21.27Q31.37-21 31.96-20.71L31.96-20.71L31.96-20.71Q32.55-20.41 32.68-20.33L32.68-20.33L31.88-18.40L31.88-18.40Q31.75-18.48 31.27-18.73L31.27-18.73L31.27-18.73Q30.79-18.98 29.90-19.24L29.90-19.24L29.90-19.24Q29.02-19.49 27.97-19.49L27.97-19.49L27.97-19.49Q25.96-19.49 24.53-18.54L24.53-18.54L24.53-18.54Q23.10-17.60 23.10-15.92L23.10-15.92L23.10-15.92Q23.10-14.32 24.40-13.48L24.40-13.48L24.40-13.48Q25.70-12.64 28.39-11.80L28.39-11.80L28.39-11.80Q30.66-11.05 32.05-10.37L32.05-10.37L32.05-10.37Q33.43-9.70 34.42-8.46L34.42-8.46L34.42-8.46Q35.41-7.22 35.41-5.25L35.41-5.25L35.41-5.25Q35.41-2.73 33.54-1.05L33.54-1.05L33.54-1.05Q31.67 0.63 28.06 0.63L28.06 0.63L28.06 0.63Q25.66 0.63 23.92-0.19L23.92-0.19L23.92-0.19Q22.18-1.01 21.27-2.35L21.27-2.35L21.27-2.35Q20.37-3.70 20.29-5.33L20.29-5.33L22.51-5.33" fill="#eec00d" stroke="none" stroke-width="none" transform="translate(-97.7750244140625,10.086370943509612)" style="fill: rgb(238, 192, 13);"></path></g><g class="path" style="transform: scale(0.91); transform-origin: -51.865px -0.37363px; animation: 1s linear -0.623077s infinite normal forwards running breath-bd4ee2e7-2857-4c8d-8dc0-242293ab8569;"><path d="M52.42-1.47L52.42-1.47Q50.90-0.50 48.97 0L48.97 0L48.97 0Q47.04 0.50 45.11 0.50L45.11 0.50L45.11 0.50Q42.00 0.50 40.17-1.03L40.17-1.03L40.17-1.03Q38.35-2.56 38.35-5.63L38.35-5.63L38.35-14.24L38.35-14.24Q38.35-17.64 40.47-19.53L40.47-19.53L40.47-19.53Q42.59-21.42 46.07-21.42L46.07-21.42L46.07-21.42Q49.56-21.42 51.51-19.55L51.51-19.55L51.51-19.55Q53.47-17.68 53.47-14.36L53.47-14.36L53.47-8.90L40.70-8.19L40.70-5.63L40.70-5.63Q40.70-3.61 42.00-2.60L42.00-2.60L42.00-2.60Q43.30-1.60 45.40-1.60L45.40-1.60L45.40-1.60Q48.34-1.60 51.49-3.28L51.49-3.28L52.42-1.47zM51.11-14.66L51.11-14.66Q51.11-17.26 49.48-18.33L49.48-18.33L49.48-18.33Q47.84-19.40 46.03-19.40L46.03-19.40L46.03-19.40Q43.72-19.40 42.21-18.14L42.21-18.14L42.21-18.14Q40.70-16.88 40.70-14.20L40.70-14.20L40.70-10.50L51.11-11.00L51.11-14.66" fill="#eec00d" stroke="none" stroke-width="none" transform="translate(-97.7750244140625,10.086370943509612)" style="fill: rgb(238, 192, 13);"></path></g><g class="path" style="transform: scale(0.91); transform-origin: -34.855px -0.62363px; animation: 1s linear -0.560769s infinite normal forwards running breath-bd4ee2e7-2857-4c8d-8dc0-242293ab8569;"><path d="M57.67 0L57.67-21.04L60.02-21.04L59.89-19.57L59.89-19.57Q61.87-21.42 65.06-21.42L65.06-21.42L65.06-21.42Q66.19-21.42 68.17-21.04L68.17-21.04L67.54-18.90L67.54-18.90Q66.19-19.32 64.72-19.32L64.72-19.32L64.72-19.32Q62.79-19.32 61.40-18.61L61.40-18.61L61.40-18.61Q60.02-17.89 60.02-16.46L60.02-16.46L60.02 0L57.67 0" fill="#eec00d" stroke="none" stroke-width="none" transform="translate(-97.7750244140625,10.086370943509612)" style="fill: rgb(238, 192, 13);"></path></g><g class="path" style="transform: scale(0.91); transform-origin: -2.29003px -0.43363px; animation: 1s linear -0.498462s infinite normal forwards running breath-bd4ee2e7-2857-4c8d-8dc0-242293ab8569;"><path d="M99.71 0L95.47-17.01L91.18 0L87.95 0L81.52-21.04L84-21.04L89.59-2.44L94.33-21.04L96.73-21.04L101.35-2.44L106.97-21.04L109.45-21.04L102.94 0L99.71 0" fill="#eec00d" stroke="none" stroke-width="none" transform="translate(-97.7750244140625,10.086370943509612)" style="fill: rgb(238, 192, 13);"></path></g><g class="path" style="transform: scale(0.91); transform-origin: 22.2px -0.37363px; animation: 1s linear -0.436154s infinite normal forwards running breath-bd4ee2e7-2857-4c8d-8dc0-242293ab8569;"><path d="M128.06 0L128.06 0Q123.52 0.46 121.51 0.46L121.51 0.46L121.51 0.46Q117.10 0.46 114.49-1.18L114.49-1.18L114.49-1.18Q111.89-2.81 111.89-7.10L111.89-7.10L111.89-10.58L111.89-10.58Q111.89-14.74 114.79-16.17L114.79-16.17L114.79-16.17Q116.17-16.88 118.31-16.88L118.31-16.88L118.31-16.88Q120.29-16.88 122.30-16.23L122.30-16.23L122.30-16.23Q124.32-15.58 125.71-14.53L125.71-14.53L125.71-14.53Q125.71-16.84 124.36-18.21L124.36-18.21L124.36-18.21Q123.02-19.57 119.20-19.57L119.20-19.57L119.32-21.38L119.32-21.38Q123.35-21.38 125.27-20.10L125.27-20.10L125.27-20.10Q127.18-18.82 127.62-17.05L127.62-17.05L127.62-17.05Q128.06-15.29 128.06-12.52L128.06-12.52L128.06 0zM125.71-12.73L125.71-12.73Q123.98-13.52 122.03-14.11L122.03-14.11L122.03-14.11Q120.08-14.70 118.44-14.70L118.44-14.70L118.44-14.70Q114.20-14.70 114.20-10.46L114.20-10.46L114.20-6.80L114.20-6.80Q114.20-4.07 116.09-2.83L116.09-2.83L116.09-2.83Q117.98-1.60 121.46-1.60L121.46-1.60L121.46-1.60Q123.27-1.60 125.71-1.93L125.71-1.93L125.71-12.73" fill="#eec00d" stroke="none" stroke-width="none" transform="translate(-97.7750244140625,10.086370943509612)" style="fill: rgb(238, 192, 13);"></path></g><g class="path" style="transform: scale(0.91); transform-origin: 36.48px -18.3286px; animation: 1s linear -0.373846s infinite normal forwards running breath-bd4ee2e7-2857-4c8d-8dc0-242293ab8569;"><path d="M134.27-27.01L134.27-27.01Q133.73-27.01 133.29-27.45L133.29-27.45L133.29-27.45Q132.85-27.89 132.85-28.43L132.85-28.43L132.85-28.43Q132.85-28.98 133.27-29.40L133.27-29.40L133.27-29.40Q133.69-29.82 134.27-29.82L134.27-29.82L134.27-29.82Q134.86-29.82 135.26-29.42L135.26-29.42L135.26-29.42Q135.66-29.02 135.66-28.43L135.66-28.43L135.66-28.43Q135.66-27.85 135.24-27.43L135.24-27.43L135.24-27.43Q134.82-27.01 134.27-27.01L134.27-27.01" fill="#eec00d" stroke="none" stroke-width="none" transform="translate(-97.7750244140625,10.086370943509612)" style="fill: rgb(238, 192, 13);"></path></g><g class="path" style="transform: scale(0.91); transform-origin: 36.46px -0.43363px; animation: 1s linear -0.311538s infinite normal forwards running breath-bd4ee2e7-2857-4c8d-8dc0-242293ab8569;"><path d="M133.06 0L133.06-21.04L135.41-21.04L135.41 0L133.06 0" fill="#eec00d" stroke="none" stroke-width="none" transform="translate(-97.7750244140625,10.086370943509612)" style="fill: rgb(238, 192, 13);"></path></g><g class="path" style="transform: scale(0.91); transform-origin: 46.79px -4.33863px; animation: 1s linear -0.249231s infinite normal forwards running breath-bd4ee2e7-2857-4c8d-8dc0-242293ab8569;"><path d="M145.32 0.55L145.32 0.55Q142.97-0.13 141.92-1.60L141.92-1.60L141.92-1.60Q140.87-3.07 140.87-5.54L140.87-5.54L140.87-29.40L143.22-29.40L143.22-21.04L148.26-21.04L147.25-18.82L143.22-18.82L143.22-5.54L143.22-5.54Q143.22-2.18 145.99-1.26L145.99-1.26L145.32 0.55" fill="#eec00d" stroke="none" stroke-width="none" transform="translate(-97.7750244140625,10.086370943509612)" style="fill: rgb(238, 192, 13);"></path></g><g class="path" style="transform: scale(0.91); transform-origin: 56.135px -18.3286px; animation: 1s linear -0.186923s infinite normal forwards running breath-bd4ee2e7-2857-4c8d-8dc0-242293ab8569;"><path d="M153.93-27.01L153.93-27.01Q153.38-27.01 152.94-27.45L152.94-27.45L152.94-27.45Q152.50-27.89 152.50-28.43L152.50-28.43L152.50-28.43Q152.50-28.98 152.92-29.40L152.92-29.40L152.92-29.40Q153.34-29.82 153.93-29.82L153.93-29.82L153.93-29.82Q154.52-29.82 154.92-29.42L154.92-29.42L154.92-29.42Q155.32-29.02 155.32-28.43L155.32-28.43L155.32-28.43Q155.32-27.85 154.90-27.43L154.90-27.43L154.90-27.43Q154.48-27.01 153.93-27.01L153.93-27.01" fill="#eec00d" stroke="none" stroke-width="none" transform="translate(-97.7750244140625,10.086370943509612)" style="fill: rgb(238, 192, 13);"></path></g><g class="path" style="transform: scale(0.91); transform-origin: 56.11px -0.43363px; animation: 1s linear -0.124615s infinite normal forwards running breath-bd4ee2e7-2857-4c8d-8dc0-242293ab8569;"><path d="M152.71 0L152.71-21.04L155.06-21.04L155.06 0L152.71 0" fill="#eec00d" stroke="none" stroke-width="none" transform="translate(-97.7750244140625,10.086370943509612)" style="fill: rgb(238, 192, 13);"></path></g><g class="path" style="transform: scale(0.91); transform-origin: 71.335px -0.603629px; animation: 1s linear -0.0623077s infinite normal forwards running breath-bd4ee2e7-2857-4c8d-8dc0-242293ab8569;"><path d="M174.55 0L174.55-14.41L174.55-14.41Q174.55-16.97 173.06-18.12L173.06-18.12L173.06-18.12Q171.57-19.28 169.22-19.28L169.22-19.28L169.22-19.28Q167.79-19.28 166.32-18.88L166.32-18.88L166.32-18.88Q164.85-18.48 163.72-17.85L163.72-17.85L163.72 0L161.36 0L161.36-21.04L163.72-21.04L163.55-19.61L163.55-19.61Q164.56-20.50 166.11-20.94L166.11-20.94L166.11-20.94Q167.66-21.38 169.34-21.38L169.34-21.38L169.34-21.38Q171.65-21.38 173.29-20.62L173.29-20.62L173.29-20.62Q174.97-19.87 175.92-18.35L175.92-18.35L175.92-18.35Q176.86-16.84 176.86-14.53L176.86-14.53L176.86 0L174.55 0" fill="#eec00d" stroke="none" stroke-width="none" transform="translate(-97.7750244140625,10.086370943509612)" style="fill: rgb(238, 192, 13);"></path></g><g class="path" style="transform: scale(0.91); transform-origin: 91.37px 3.78637px; animation: 1s linear 0s infinite normal forwards running breath-bd4ee2e7-2857-4c8d-8dc0-242293ab8569;"><path d="M191.94 7.01L191.94 7.01Q194.71 5.96 194.71 2.65L194.71 2.65L194.71-2.56L194.71-2.56Q192.95 0.50 189.04 0.50L189.04 0.50L189.04 0.50Q185.35 0.50 183.29-1.51L183.29-1.51L183.29-1.51Q181.23-3.53 181.23-7.39L181.23-7.39L181.23-13.65L181.23-13.65Q181.23-17.35 183.39-19.38L183.39-19.38L183.39-19.38Q185.56-21.42 189.21-21.42L189.21-21.42L189.21-21.42Q193.12-21.42 194.88-18.61L194.88-18.61L194.71-21.04L197.06-21.04L197.06 2.69L197.06 2.69Q197.06 5.21 196.01 6.64L196.01 6.64L196.01 6.64Q194.96 8.06 192.57 8.82L192.57 8.82L191.94 7.01zM194.71-14.11L194.71-14.11Q194.71-16.72 193.03-18.00L193.03-18.00L193.03-18.00Q191.35-19.28 189.04-19.28L189.04-19.28L189.04-19.28Q186.82-19.28 185.20-17.91L185.20-17.91L185.20-17.91Q183.58-16.55 183.58-13.44L183.58-13.44L183.58-7.01L183.58-7.01Q183.58-4.37 185.07-3.02L185.07-3.02L185.07-3.02Q186.56-1.68 189.04-1.68L189.04-1.68L189.04-1.68Q191.39-1.68 193.05-3.13L193.05-3.13L193.05-3.13Q194.71-4.58 194.71-7.27L194.71-7.27L194.71-14.11" fill="#eec00d" stroke="none" stroke-width="none" transform="translate(-97.7750244140625,10.086370943509612)" style="fill: rgb(238, 192, 13);"></path></g></g>
</g>
</g>
<style id="breath-bd4ee2e7-2857-4c8d-8dc0-242293ab8569" data-anikit="">@keyframes breath-bd4ee2e7-2857-4c8d-8dc0-242293ab8569
{
  0% {
    animation-timing-function: cubic-bezier(0.9647,0.2413,-0.0705,0.7911);
    transform: scale(0.9099999999999999);
  }
  51% {
    animation-timing-function: cubic-bezier(0.9226,0.2631,-0.0308,0.7628);
    transform: scale(1.02994);
  }
  100% {
    transform: scale(0.9099999999999999);
  }
}</style></svg>